<svg width="60" height="66" viewBox="0 0 60 66" fill="none" xmlns="http://www.w3.org/2000/svg">
<g filter="url(#filter0_d_21_7)">
<path d="M4 57.344V56.064C5.70666 55.8934 7.15734 55.3814 8.352 54.528C9.54666 53.7174 10.464 52.3094 11.104 50.304C11.744 48.2986 12.064 45.4826 12.064 41.856V6.784C12.064 5.2054 11.936 4.0534 11.68 3.328C11.4667 2.56 11.0187 2.048 10.336 1.792C9.65334 1.4934 8.62934 1.3226 7.264 1.28V0C8.33066 0.0426 9.71734 0.0854003 11.424 0.128C13.1733 0.1706 15.008 0.191999 16.928 0.191999C18.848 0.191999 20.704 0.1706 22.496 0.128C24.3306 0.0854003 25.8454 0.0426 27.04 0V1.28C25.7174 1.3226 24.6934 1.4934 23.968 1.792C23.2854 2.048 22.816 2.56 22.56 3.328C22.3466 4.0534 22.24 5.2054 22.24 6.784V30.208C22.24 31.9574 22.24 33.856 22.24 35.904C22.24 37.9094 22.1546 39.872 21.984 41.792C21.856 43.712 21.5786 45.4186 21.152 46.912C20.2986 49.856 18.4426 52.3306 15.584 54.336C12.768 56.3414 8.90666 57.344 4 57.344Z" fill="black"/>
<path d="M35.392 9.104C38.2934 9.104 40.6614 9.5094 42.496 10.32C44.3306 11.1306 45.9734 12.112 47.424 13.264C47.936 13.648 48.3626 13.84 48.704 13.84C49.5146 13.84 50.048 12.56 50.304 10H51.776C51.6906 11.664 51.6266 13.6906 51.584 16.08C51.5414 18.4266 51.52 21.5626 51.52 25.488H50.048C49.7494 22.928 49.28 20.7094 48.64 18.832C48.0426 16.912 46.912 15.2694 45.248 13.904C44.224 12.9226 42.944 12.1546 41.408 11.6C39.9146 11.0454 38.4 10.768 36.864 10.768C34.5174 10.768 32.512 11.3866 30.848 12.624C29.184 13.8186 27.8186 15.4614 26.752 17.552C25.6854 19.6426 24.896 22.0106 24.384 24.656C23.872 27.2586 23.616 29.968 23.616 32.784C23.616 40.464 24.6614 46.0746 26.752 49.616C28.8854 53.1574 31.936 54.928 35.904 54.928C36.928 54.928 37.824 54.8 38.592 54.544C39.36 54.288 39.9786 53.9894 40.448 53.648C41.0454 53.2214 41.4506 52.7734 41.664 52.304C41.8774 51.792 41.984 51.1306 41.984 50.32V44.048C41.984 42.0854 41.8134 40.6346 41.472 39.696C41.1734 38.7146 40.5546 38.0534 39.616 37.712C38.6774 37.3706 37.312 37.1786 35.52 37.136V35.856C36.416 35.8986 37.4826 35.9414 38.72 35.984C40 35.984 41.3226 36.0054 42.688 36.048C44.0534 36.048 45.312 36.048 46.464 36.048C48.256 36.048 49.8986 36.0266 51.392 35.984C52.8854 35.9414 54.1014 35.8986 55.04 35.856V37.136C54.2294 37.1786 53.6106 37.328 53.184 37.584C52.8 37.84 52.5226 38.352 52.352 39.12C52.224 39.888 52.16 41.0614 52.16 42.64V55.312H50.88C50.8374 54.5866 50.6666 53.7974 50.368 52.944C50.112 52.0906 49.664 51.664 49.024 51.664C48.7254 51.664 48.32 51.7494 47.808 51.92C47.3386 52.048 46.592 52.4106 45.568 53.008C43.9894 53.904 42.3254 54.672 40.576 55.312C38.8266 55.9094 36.992 56.208 35.072 56.208C30.1226 56.208 25.9414 55.2906 22.528 53.456C19.1146 51.6214 16.5334 48.9974 14.784 45.584C13.0773 42.128 12.224 37.9894 12.224 33.168C12.224 28.304 13.2053 24.08 15.168 20.496C17.1734 16.912 19.904 14.1174 23.36 12.112C26.8586 10.1066 30.8694 9.104 35.392 9.104Z" fill="black"/>
</g>
<defs>
<filter id="filter0_d_21_7" x="0" y="0" width="59.04" height="65.344" filterUnits="userSpaceOnUse" color-interpolation-filters="sRGB">
<feFlood flood-opacity="0" result="BackgroundImageFix"/>
<feColorMatrix in="SourceAlpha" type="matrix" values="0 0 0 0 0 0 0 0 0 0 0 0 0 0 0 0 0 0 127 0" result="hardAlpha"/>
<feOffset dy="4"/>
<feGaussianBlur stdDeviation="2"/>
<feComposite in2="hardAlpha" operator="out"/>
<feColorMatrix type="matrix" values="0 0 0 0 0 0 0 0 0 0 0 0 0 0 0 0 0 0 0.25 0"/>
<feBlend mode="normal" in2="BackgroundImageFix" result="effect1_dropShadow_21_7"/>
<feBlend mode="normal" in="SourceGraphic" in2="effect1_dropShadow_21_7" result="shape"/>
</filter>
</defs>
</svg>
